<svg viewBox="0 0 311 43" xmlns="http://www.w3.org/2000/svg" data-logo="logo">
        <g transform="translate(0, 1) rotate(0)" id="logogram" style="opacity: 1;"><path fill="#FF4000" d="M35.5 0.5C45.9934 0.5 54.5 9.00659 54.5 19.5V40.5C50.0817 40.5 46.5 36.9183 46.5 32.5V19.5C46.5 13.4249 41.5751 8.5 35.5 8.5H30.2988C27.6467 8.50004 25.1029 9.55339 23.2275 11.4287L9.67188 24.9854C8.92179 25.7354 8.50006 26.7527 8.5 27.8135V28.5C8.5 30.7091 10.2909 32.5 12.5 32.5H30.5C30.5 36.7801 27.1389 40.2748 22.9121 40.4893L22.5 40.5H12.5C5.87259 40.5 0.5 35.1274 0.5 28.5V27.8135C0.500062 24.631 1.76427 21.5785 4.01465 19.3281L17.5713 5.77246C20.9469 2.39685 25.525 0.500044 30.2988 0.5H35.5Z"></path><path fill="#207EF8" d="M37.5 12.5C40.2614 12.5 42.5 14.7386 42.5 17.5V40.5C38.0817 40.5 34.5 36.9183 34.5 32.5V20.5H31.1562L24.6207 27.0355C23.683 27.9732 22.4113 28.5 21.0852 28.5H12.9775C12.5588 28.5 12.3491 27.9937 12.6452 27.6976L26.3789 13.9648C27.3165 13.0272 28.588 12.5 29.9141 12.5H37.5Z"></path></g>
        <g transform="translate(61, 1)" id="logotype" style="opacity: 1;"><path d="M17.99 40L14.20 40Q12.54 40 11.47 38.95Q10.40 37.91 10.40 36.26L10.40 36.26L10.40 5.30Q10.40 3.65 11.47 2.57Q12.54 1.50 14.20 1.50L14.20 1.50L17.99 1.50L17.99 40ZM31.80 8.32L15.46 8.32L15.46 1.50L31.80 1.50Q33.28 1.50 34.24 2.44Q35.20 3.37 35.20 4.91L35.20 4.91Q35.20 6.40 34.24 7.36Q33.28 8.32 31.80 8.32L31.80 8.32ZM29.71 23.77L15.52 23.77L15.52 16.95L29.71 16.95Q31.19 16.95 32.15 17.92Q33.11 18.88 33.11 20.36L33.11 20.36Q33.11 21.85 32.15 22.81Q31.19 23.77 29.71 23.77L29.71 23.77ZM32.45 40L16.06 40L16.06 33.02L32.45 33.02Q33.94 33.02 34.90 33.98Q35.86 34.94 35.86 36.48L35.86 36.48Q35.86 38.02 34.90 39.01Q33.94 40 32.45 40L32.45 40ZM56.38 40L46.15 40Q44.50 40 43.43 38.93Q42.35 37.85 42.35 36.20L42.35 36.20L42.35 5.30Q42.35 3.65 43.43 2.57Q44.50 1.50 46.15 1.50L46.15 1.50L57.37 1.50Q61.99 1.50 65.43 3.92Q68.86 6.34 70.79 10.68Q72.72 15.03 72.72 20.75L72.72 20.75Q72.72 26.41 70.71 30.76Q68.70 35.10 65.04 37.55Q61.38 40 56.38 40L56.38 40ZM49.95 8.32L49.95 33.13L56.33 33.13Q59.19 33.13 61.14 31.64Q63.09 30.16 64.08 27.38Q65.07 24.60 65.07 20.75L65.07 20.75Q65.07 16.90 64.11 14.12Q63.14 11.34 61.36 9.83Q59.57 8.32 57.04 8.32L57.04 8.32L49.95 8.32ZM93.67 40.83L93.67 40.83Q90.48 40.83 87.73 39.64Q84.98 38.46 82.92 36.40Q80.85 34.34 79.67 31.56Q78.49 28.78 78.49 25.59L78.49 25.59L78.49 4.74Q78.49 3.09 79.56 2.02Q80.63 0.95 82.28 0.95L82.28 0.95Q83.94 0.95 85.01 2.02Q86.08 3.09 86.08 4.74L86.08 4.74L86.08 26.09Q86.08 28.29 87.07 30.02Q88.06 31.75 89.77 32.77Q91.47 33.78 93.67 33.78L93.67 33.78Q95.87 33.78 97.57 32.77Q99.28 31.75 100.27 30.02Q101.26 28.29 101.26 26.09L101.26 26.09L101.26 4.74Q101.26 3.09 102.33 2.02Q103.41 0.95 105.05 0.95L105.05 0.95Q106.70 0.95 107.78 2.02Q108.85 3.09 108.85 4.74L108.85 4.74L108.85 25.59Q108.85 28.78 107.67 31.56Q106.48 34.34 104.42 36.40Q102.36 38.46 99.61 39.64Q96.86 40.83 93.67 40.83ZM131.13 28.78L118.42 28.78Q117.10 28.78 116.14 27.87Q115.17 26.96 115.17 25.59L115.17 25.59Q115.17 24.27 116.14 23.31Q117.10 22.34 118.42 22.34L118.42 22.34L131.13 22.34Q132.44 22.34 133.38 23.31Q134.31 24.27 134.31 25.59L134.31 25.59Q134.31 26.91 133.38 27.84Q132.44 28.78 131.13 28.78L131.13 28.78ZM155.60 40.83L155.60 40.83Q151.69 40.83 148.70 39.20Q145.70 37.58 143.66 34.77Q141.63 31.97 140.58 28.37Q139.54 24.77 139.54 20.75L139.54 20.75Q139.54 14.86 141.63 10.36Q143.72 5.84 147.38 3.26Q151.03 0.67 155.71 0.67L155.71 0.67Q158.02 0.67 160.25 1.31Q162.47 1.94 164.32 3.09Q166.16 4.25 167.26 5.79Q168.36 7.33 168.41 9.20L168.41 9.20Q168.41 10.68 167.56 11.73Q166.71 12.77 165.06 12.77L165.06 12.77Q163.74 12.77 162.97 12.11Q162.20 11.45 161.65 10.68L161.65 10.68Q161.04 9.48 159.92 8.46Q158.79 7.44 156.37 7.44L156.37 7.44Q153.51 7.44 151.47 9.12Q149.44 10.79 148.31 13.79Q147.18 16.79 147.18 20.86L147.18 20.86Q147.18 24.93 148.31 27.87Q149.44 30.81 151.45 32.41Q153.45 34.01 156.15 34.01L156.15 34.01Q158.40 34.01 159.83 32.85Q161.26 31.70 161.92 29.44L161.92 29.44Q162.31 28.23 163.24 27.49Q164.18 26.74 165.44 26.74L165.44 26.74Q166.93 26.74 167.97 27.79Q169.02 28.84 169.02 30.70L169.02 30.70Q168.96 32.63 167.95 34.45Q166.93 36.26 165.11 37.69Q163.30 39.12 160.88 39.97Q158.46 40.83 155.60 40.83ZM179.41 40.55L179.41 40.55Q177.76 40.55 176.69 39.48Q175.62 38.41 175.62 36.76L175.62 36.76L175.78 5.13Q175.78 3.04 176.91 1.99Q178.04 0.95 179.85 0.95L179.85 0.95Q181.50 0.95 182.49 1.66Q183.48 2.38 183.92 3.42L183.92 3.42L195.03 30.43L206.03 3.42Q206.47 2.38 207.49 1.66Q208.51 0.95 210.16 0.95L210.16 0.95Q211.97 0.95 213.07 2.02Q214.17 3.09 214.17 5.13L214.17 5.13L214.34 36.76Q214.34 38.41 213.29 39.48Q212.25 40.55 210.60 40.55L210.60 40.55Q208.95 40.55 207.85 39.48Q206.75 38.41 206.80 36.76L206.80 36.76L207.19 18.44L199.43 37.14Q198.66 39.01 197.54 39.78Q196.41 40.55 195.03 40.55L195.03 40.55Q193.71 40.55 192.59 39.78Q191.46 39.01 190.69 37.14L190.69 37.14L182.82 18.39L183.21 36.76Q183.26 38.41 182.19 39.48Q181.12 40.55 179.41 40.55ZM235.40 40.83L235.40 40.83Q231.22 40.83 227.90 39.48Q224.57 38.13 222.70 35.93Q220.83 33.73 220.83 31.20L220.83 31.20Q220.83 29.66 221.79 28.67Q222.75 27.68 224.46 27.68L224.46 27.68Q225.94 27.68 226.63 28.51Q227.32 29.33 227.98 30.38L227.98 30.38Q228.91 31.86 230.62 32.93Q232.32 34.01 235.18 34.01L235.18 34.01Q236.83 34.01 238.21 33.59Q239.58 33.18 240.41 32.19Q241.23 31.20 241.23 29.61L241.23 29.61Q241.23 28.06 240.38 27.07Q239.53 26.09 237.93 25.31Q236.34 24.55 234.08 23.66L234.08 23.66Q232.16 22.95 230.18 22.07Q228.20 21.19 226.52 19.90Q224.84 18.61 223.83 16.60Q222.81 14.59 222.81 11.57L222.81 11.57Q222.81 7.99 224.46 5.57Q226.11 3.15 228.89 1.91Q231.66 0.67 235.18 0.67L235.18 0.67Q237.71 0.67 239.89 1.31Q242.06 1.94 243.65 3.04Q245.25 4.14 246.16 5.57Q247.06 7 247.12 8.59L247.12 8.59Q247.12 10.19 246.18 11.21Q245.25 12.23 243.65 12.23L243.65 12.23Q242.44 12.23 241.84 11.79Q241.23 11.34 240.57 10.36L240.57 10.36Q239.86 9.04 238.65 8.27Q237.44 7.49 235.24 7.49L235.24 7.49Q233.86 7.49 232.76 7.94Q231.66 8.38 231.03 9.20Q230.40 10.02 230.40 11.23L230.40 11.23Q230.40 12.89 231.42 13.93Q232.43 14.98 234.11 15.75Q235.79 16.52 237.71 17.29L237.71 17.29Q239.91 18.16 241.92 19.16Q243.93 20.14 245.50 21.46Q247.06 22.79 247.94 24.66Q248.82 26.52 248.82 29.22L248.82 29.22Q248.82 33.02 247.06 35.60Q245.30 38.19 242.28 39.51Q239.25 40.83 235.40 40.83Z" fill="#0084ff"></path></g>
        
      </svg>